<?xml version="1.0" encoding="iso-8859-1"?>
<!-- Uploaded to: SVG Repo, www.svgrepo.com, Generator: SVG Repo Mixer Tools -->
<svg fill="#000000" height="800px" width="800px" version="1.1" id="Layer_1" xmlns="http://www.w3.org/2000/svg" xmlns:xlink="http://www.w3.org/1999/xlink" 
	 viewBox="0 0 512 512" xml:space="preserve">
<g>
	<g>
		<g>
			<path d="M415.12,73.876C367.482,26.238,304.139,0,236.773,0c-40.846,0-81.42,9.989-117.334,28.902
				c-34.754,18.297-65.203,44.89-88.066,76.927l-8.359,11.693l72.277,61.65l8.715-11.766c0.209-0.282,0.428-0.575,0.648-0.857
				c3.124-4.18,6.478-8.192,10.021-12.037c7.722-8.401,16.374-15.987,25.841-22.643c34.932-24.535,77.324-34.002,119.372-26.645
				c42.048,7.356,78.714,30.637,103.248,65.569c20.292,28.882,30.292,62.758,28.923,97.951
				c-0.825,21.295-5.987,42.298-14.932,61.525c-2.497,5.381-5.287,10.616-8.38,15.674c-2.1,3.48-4.347,6.876-6.729,10.177
				l1.484,5.496h100.835l4.086-9.456c13.647-31.619,20.564-65.245,20.564-99.936C488.986,184.846,462.758,121.514,415.12,73.876z"/>
			<path d="M200.4,256.81c0.93-0.449,1.881-0.888,2.842-1.296c-12.529-28.443-39.164-48.777-79.435-60.616l-3.009,4.201
				l-40.679,56.802c55.433-7.952,95.077,0.627,112.13,5.705C194.82,259.798,197.547,258.2,200.4,256.81z"/>
			<path d="M337.326,336.746c3.051-4.316,5.799-8.788,8.255-13.385c22.455-42.068,19.989-94.565-8.098-134.554
				c-19.728-28.077-49.195-46.792-82.998-52.706c-33.793-5.904-67.867,1.703-95.944,21.421c-4.18,2.936-8.161,6.092-11.923,9.456
				c-0.637,0.575-1.275,1.149-1.902,1.735c23.396,8.265,42.852,19.456,58.035,33.437c11.912,10.982,21.264,23.678,27.952,37.941
				c1.735,3.72,3.302,7.544,4.671,11.463c4.284,0.648,8.422,1.766,12.361,3.291c4.211,1.62,8.182,3.709,11.87,6.207
				c0.042,0.021,0.084,0.052,0.115,0.084l2.936,2.121c11.139,8.6,19.153,21.045,22.048,35.339c0.773,3.824,1.181,7.774,1.181,11.828
				c0,2.706-0.178,5.371-0.543,7.983c-3.72,27.722-26.583,49.456-54.806,51.42c-7.795,23.312-16.51,39.226-17.325,40.689
				l-18.286,33.417h158.284l-25.559-94.847l-0.324-1.212l5.956-5.705C334.682,340.393,336.03,338.585,337.326,336.746z"/>
			<polygon points="177.777,475.282 157.684,512 371.558,512 361.662,475.282 			"/>
			<path d="M226.335,338.637c15.548,0,28.202-12.654,28.202-28.213c0-9.08-4.315-17.178-11.003-22.33l-1.442-1.055
				c-0.031-0.021-0.052-0.031-0.073-0.042c-4.483-3.02-9.885-4.786-15.684-4.786c-1.223,0-2.414,0.073-3.594,0.24
				c-13.866,1.755-24.618,13.636-24.618,27.972c0,13.365,9.331,24.576,21.818,27.471
				C221.988,338.387,224.13,338.637,226.335,338.637z"/>
		</g>
	</g>
</g>
</svg>